<svg xmlns="http://www.w3.org/2000/svg" viewBox="0 0 481.66304 496.66293"><title>about-docs-wheel</title><path d="M479.79918,238.85717c-32.9491,343.10317-479.21439,342.821-479.215.00048C.58353-75.53653,509.853-74.09719,479.79918,238.85717Z" style="fill:none;stroke:#3d5afe;stroke-linecap:round;stroke-linejoin:round;stroke-width:1.16826868057251px"/><ellipse cx="295.12705" cy="5.78989" rx="3.96311" ry="3.91434" transform="translate(91.86161 219.83815) rotate(-47.60402)" style="fill:#3d5afe"/><ellipse cx="264.86277" cy="3.94114" rx="3.96311" ry="3.91434" transform="translate(83.36835 196.88568) rotate(-47.60402)" style="fill:#3d5afe"/><ellipse cx="279.99491" cy="4.86551" rx="3.96311" ry="3.91434" transform="translate(87.61498 208.36192) rotate(-47.60402)" style="fill:#3d5afe"/><ellipse cx="451.18659" cy="349.42223" rx="3.91434" ry="3.96311" transform="translate(-114.08359 271.0969) rotate(-29.86723)" style="fill:#3d5afe"/><ellipse cx="462.16732" cy="321.15975" rx="3.91434" ry="3.96311" transform="translate(-98.55066 272.81143) rotate(-29.86723)" style="fill:#3d5afe"/><ellipse cx="456.67695" cy="335.29099" rx="3.91434" ry="3.96311" transform="translate(-106.31713 271.95417) rotate(-29.86723)" style="fill:#3d5afe"/><path d="M279.91588,229.69883c15.17765,61.25417-62.83862,88.78231-83.75805,29.613C176.973,205.04887,266.0719,173.82712,279.91588,229.69883Z" style="fill:#f1f3fe"/><line x1="242.08092" y1="247.06042" x2="471.68555" y2="147.38298" style="fill:none;stroke:#3d5afe;stroke-linecap:round;stroke-linejoin:round;stroke-width:1.16826868057251px"/><line x1="242.08092" y1="247.06042" x2="242.08092" y2="495.70632" style="fill:none;stroke:#3d5afe;stroke-linecap:round;stroke-linejoin:round;stroke-width:1.16826868057251px"/><line x1="241.83776" y1="244.64409" x2="85.33948" y2="57.68405" style="fill:none;stroke:#3d5afe;stroke-linecap:round;stroke-linejoin:round;stroke-width:1.16826868057251px"/><path d="M251.58643,256.29728c-14.66678,12.09551-32.06083-5.32055-18.69017-18.69013C245.15824,225.34616,264.96443,245.26461,251.58643,256.29728Z" style="fill:#3d5afe"/><ellipse cx="5.52598" cy="295.34984" rx="3.91349" ry="3.96864" transform="translate(-263.18075 172.63571) rotate(-64.38269)" style="fill:#3d5afe"/><ellipse cx="11.46223" cy="325.08185" rx="3.91349" ry="3.96864" transform="translate(-286.6205 194.86557) rotate(-64.38269)" style="fill:#3d5afe"/><ellipse cx="8.4941" cy="310.21584" rx="3.91349" ry="3.96864" transform="translate(-274.90062 183.75064) rotate(-64.38269)" style="fill:#3d5afe"/></svg>