<svg xmlns="http://www.w3.org/2000/svg" width="1014.311" height="837.997" viewBox="0 0 1014.311 837.997">
  <g id="paper_plain_bottom_right" data-name="paper plain bottom right" transform="translate(-1046.824 -5190.101)">
    <g id="Group_43" data-name="Group 43" transform="translate(1059.84 5671.994) rotate(18)">
      <g id="Group_41" data-name="Group 41">
        <g id="Group_40" data-name="Group 40">
          <path id="Path_13" data-name="Path 13" d="M546.989,5865.5l-17.494,4.658-55.9-24.222Z" transform="translate(-471.12 -5844.96)" fill="#00b1e8"/>
          <path id="Path_14" data-name="Path 14" d="M608.942,5870.06l-5.279,14.183-3-12.94-47.41-27.535Z" transform="translate(-552.12 -5843.314)" fill="#0291be"/>
          <path id="Path_15" data-name="Path 15" d="M592.723,5978.639l-3.063-12.25-5.88,4.349Z" transform="translate(-543.2 -5936.614)" fill="#11a9cc"/>
          <path id="Path_16" data-name="Path 16" d="M647.53,5870.219l-21.163,13.775-23.888-42.123Z" transform="translate(-602.479 -5841.871)" fill="#00b1e8"/>
        </g>
      </g>
    </g>
    <path id="Path_18" data-name="Path 18" d="M1095.948,5668.5s14.632,126.568,102.425,147.785,43.75,93.793,43.75,93.793-25.679,57.639,108.424,55.925,186.414-73.045,250.137-61.632,38.117,71.61,318.323,61.632,102.21-445.748-177.789-615S1985.7,5163.566,1985.7,5163.566l57.045-32.6" transform="translate(0 60)" fill="none" stroke="#00b1e8" stroke-width="2" stroke-dasharray="10"/>
  </g>
</svg>
