<svg xmlns="http://www.w3.org/2000/svg" xmlns:xlink="http://www.w3.org/1999/xlink" width="141" height="141" viewBox="0 0 141 141">
  <defs>
    <filter id="Ellipse_10" x="0" y="0" width="141" height="141" filterUnits="userSpaceOnUse">
      <feOffset dy="1" input="SourceAlpha"/>
      <feGaussianBlur stdDeviation="3" result="blur"/>
      <feFlood flood-opacity="0.161"/>
      <feComposite operator="in" in2="blur"/>
      <feComposite in="SourceGraphic"/>
    </filter>
  </defs>
  <g id="social_medeia" data-name="social medeia" transform="translate(-1077 -3081.625)">
    <g transform="matrix(1, 0, 0, 1, 1077, 3081.63)" filter="url(#Ellipse_10)">
      <circle id="Ellipse_10-2" data-name="Ellipse 10" cx="61.5" cy="61.5" r="61.5" transform="translate(9 8)" fill="#fff"/>
    </g>
    <g id="Group_25" data-name="Group 25">
      <path id="Icon_ionic-ios-contact" data-name="Icon ionic-ios-contact" d="M28.838,3.375h0A25.452,25.452,0,0,0,3.522,26.157a24.537,24.537,0,0,0,0,5.362A25.452,25.452,0,0,0,28.838,54.3h0a25.463,25.463,0,0,0,0-50.926ZM45.462,43.3c-2.779-1.053-7.284-2.6-10.087-3.428-.294-.086-.331-.11-.331-1.31a6.966,6.966,0,0,1,.808-2.852,14.227,14.227,0,0,0,1.126-3.868,8.6,8.6,0,0,0,1.665-4.028,5.373,5.373,0,0,0-.049-3.379,2.169,2.169,0,0,1-.073-.208,22.014,22.014,0,0,1,.379-4.75,8.746,8.746,0,0,0-1.824-6.28,9.357,9.357,0,0,0-7.161-3.428H27.773a9.345,9.345,0,0,0-7.1,3.428,8.709,8.709,0,0,0-1.836,6.28,22.014,22.014,0,0,1,.379,4.75c-.024.086-.049.147-.073.22a5.281,5.281,0,0,0-.049,3.379,8.734,8.734,0,0,0,1.665,4.028,14.816,14.816,0,0,0,1.126,3.868,6.839,6.839,0,0,1,.465,2.889c0,1.212-.049,1.224-.318,1.31-2.9.857-7.21,2.375-9.793,3.4A22.034,22.034,0,0,1,44.422,13.254,22.035,22.035,0,0,1,45.462,43.3Z" transform="translate(1118.162 3131.324)" fill="#00b1e8"/>
      <circle id="Ellipse_3" data-name="Ellipse 3" cx="5" cy="5" r="5" transform="translate(1141 3117)" fill="#00b1e8"/>
      <circle id="Ellipse_4" data-name="Ellipse 4" cx="5" cy="5" r="5" transform="translate(1168 3126)" fill="#00b1e8"/>
      <circle id="Ellipse_5" data-name="Ellipse 5" cx="5" cy="5" r="5" transform="translate(1114 3125)" fill="#00b1e8"/>
      <circle id="Ellipse_6" data-name="Ellipse 6" cx="5" cy="5" r="5" transform="translate(1106 3143)" fill="#00b1e8"/>
      <circle id="Ellipse_7" data-name="Ellipse 7" cx="5" cy="5" r="5" transform="translate(1178 3143)" fill="#00b1e8"/>
      <line id="Line_5" data-name="Line 5" x2="13" y2="6" transform="translate(1111.5 3148.5)" fill="none" stroke="#00b1e8" stroke-width="1"/>
      <line id="Line_6" data-name="Line 6" x2="12" y2="11" transform="translate(1119.5 3130.5)" fill="none" stroke="#00b1e8" stroke-width="1"/>
      <line id="Line_7" data-name="Line 7" y2="12" transform="translate(1146 3124.5)" fill="none" stroke="#00b1e8" stroke-width="1"/>
      <line id="Line_8" data-name="Line 8" x1="11" y2="10" transform="translate(1162.5 3131.5)" fill="none" stroke="#00b1e8" stroke-width="1"/>
      <line id="Line_9" data-name="Line 9" x1="14" y2="5" transform="translate(1169.5 3148.5)" fill="none" stroke="#00b1e8" stroke-width="1"/>
    </g>
  </g>
</svg>
