<svg xmlns="http://www.w3.org/2000/svg" width="1920.5" height="117.9" viewBox="0 0 1920.5 117.9">
  <path id="Subtraction_4" data-name="Subtraction 4" d="M-4256,479.262v-117.9l1920.5.077v98.338c-3.367-.83-5.256-1.386-5.334-1.409-.157-.034-15.967-3.46-42.353-8.412-24.535-4.6-63.7-11.553-110.951-18.505-53.106-7.814-105.388-14.04-155.392-18.505-62.509-5.581-121.614-8.412-175.675-8.412-38.045,0-74.188,1.41-107.426,4.189-17.775,1.487-35.075,3.4-51.42,5.674-17.038,2.375-33.513,5.218-48.967,8.45-31.759,6.641-63.909,12.431-95.557,17.209-30.557,4.614-61.752,8.45-92.717,11.4-29.672,2.829-60.263,4.954-90.922,6.314-29.088,1.291-59.426,1.945-90.173,1.946-31.331,0-63.275-.644-97.657-1.971-31.06-1.2-63.553-2.938-99.335-5.315-65.454-4.349-133.391-10.294-209.031-17.048-40.8-3.643-81.612-5.49-121.315-5.49a1216.486,1216.486,0,0,0-138.258,7.714,1007.727,1007.727,0,0,0-102.458,16.97c-28.778,6.376-50.508,12.747-63.67,16.97-14.164,4.545-21.811,7.682-21.886,7.713Z" transform="translate(4256 -361.362)" fill="#a3d8fd"/>
</svg>
