<svg xmlns="http://www.w3.org/2000/svg" width="406.647" height="334.924" viewBox="0 0 406.647 334.924">
  <g id="wirfraime_top_left" data-name="wirfraime top left" transform="translate(0 -3735.576)">
    <g id="Group_31" data-name="Group 31" transform="translate(-997.155 4459.249) rotate(-120)">
      <circle id="Ellipse_1" data-name="Ellipse 1" cx="7" cy="7" r="7" transform="translate(-168 1282.677)" fill="#00b1e8"/>
      <ellipse id="Ellipse_2" data-name="Ellipse 2" cx="6.5" cy="7" rx="6.5" ry="7" transform="translate(-139 1271.677)" fill="#00b1e8"/>
      <line id="Line_2" data-name="Line 2" y1="10.78" x2="30.183" transform="translate(-161.07 1278.967)" fill="none" stroke="#00b1e8" stroke-width="4"/>
    </g>
    <g id="Group_36" data-name="Group 36" transform="matrix(0.695, 0.719, -0.719, 0.695, 1414.762, 3062.928)">
      <circle id="Ellipse_1-2" data-name="Ellipse 1" cx="5.604" cy="5.604" r="5.604" transform="translate(-168 1280.482)" fill="#00b1e8"/>
      <ellipse id="Ellipse_2-2" data-name="Ellipse 2" cx="5.203" cy="5.604" rx="5.203" ry="5.604" transform="translate(-144.785 1271.677)" fill="#00b1e8"/>
      <line id="Line_2-2" data-name="Line 2" y1="8.629" x2="24.162" transform="translate(-162.453 1277.513)" fill="none" stroke="#00b1e8" stroke-width="4"/>
    </g>
    <g id="Group_30" data-name="Group 30" transform="translate(541.048 5018.419) rotate(161)">
      <circle id="Ellipse_1-3" data-name="Ellipse 1" cx="7" cy="7" r="7" transform="translate(-168 1282.677)" fill="#00b1e8"/>
      <ellipse id="Ellipse_2-3" data-name="Ellipse 2" cx="6.5" cy="7" rx="6.5" ry="7" transform="translate(-139 1271.677)" fill="#00b1e8"/>
      <line id="Line_2-3" data-name="Line 2" y1="10.78" x2="30.183" transform="translate(-161.07 1278.967)" fill="none" stroke="#00b1e8" stroke-width="4"/>
    </g>
    <g id="Group_29" data-name="Group 29" transform="matrix(-0.946, -0.326, 0.326, -0.946, -520.966, 4923.009)">
      <circle id="Ellipse_1-4" data-name="Ellipse 1" cx="9" cy="9" r="9" transform="translate(-168 1286)" fill="#00b1e8"/>
      <circle id="Ellipse_2-4" data-name="Ellipse 2" cx="9" cy="9" r="9" transform="translate(-131 1272)" fill="#00b1e8"/>
      <line id="Line_2-4" data-name="Line 2" y1="13.979" x2="39.14" transform="translate(-159.014 1281.035)" fill="none" stroke="#00b1e8" stroke-width="4"/>
    </g>
    <g id="Group_34" data-name="Group 34" transform="translate(-286.94 2792.905) rotate(-21)">
      <circle id="Ellipse_1-5" data-name="Ellipse 1" cx="9" cy="9" r="9" transform="translate(-168 1286)" fill="#00b1e8"/>
      <circle id="Ellipse_2-5" data-name="Ellipse 2" cx="9" cy="9" r="9" transform="translate(-131 1272)" fill="#00b1e8"/>
      <line id="Line_2-5" data-name="Line 2" y1="13.979" x2="39.14" transform="translate(-159.014 1281.035)" fill="none" stroke="#00b1e8" stroke-width="4"/>
    </g>
    <g id="Group_37" data-name="Group 37" transform="translate(-249.014 2659.416) rotate(-21)">
      <circle id="Ellipse_1-6" data-name="Ellipse 1" cx="3.884" cy="3.884" r="3.884" transform="translate(-168 1278.042)" fill="#00b1e8"/>
      <circle id="Ellipse_2-6" data-name="Ellipse 2" cx="3.884" cy="3.884" r="3.884" transform="translate(-152.031 1272)" fill="#00b1e8"/>
      <line id="Line_2-6" data-name="Line 2" y1="6.033" x2="16.893" transform="translate(-164.122 1275.899)" fill="none" stroke="#00b1e8" stroke-width="2"/>
    </g>
    <path id="Path_12" data-name="Path 12" d="M12.062,3615.348l12.7,300.416,32.229-140.59,117.036,18.774-117.036,97.4,191.928-264.07L70.563,3762.78l326.408-53.68L200.433,3815.161,51.082,3609.1l329.005,88.745L274.892,3602l-223.81,3.636" transform="translate(0 141)" fill="none" stroke="#00b1e8" stroke-width="1"/>
  </g>
</svg>
