<svg xmlns="http://www.w3.org/2000/svg" width="555.575" height="334.924" viewBox="0 0 555.575 334.924">
  <g id="Group_39" data-name="Group 39" transform="translate(-1364.425 -4134.155)">
    <g id="Group_28" data-name="Group 28" transform="translate(1713.679 5699.21) rotate(158)">
      <circle id="Ellipse_1" data-name="Ellipse 1" cx="4.538" cy="4.538" r="4.538" transform="translate(-168 1278.807)" fill="#00b1e8"/>
      <ellipse id="Ellipse_2" data-name="Ellipse 2" cx="4.213" cy="4.538" rx="4.213" ry="4.538" transform="translate(-149.202 1271.677)" fill="#00b1e8"/>
      <line id="Line_2" data-name="Line 2" y1="6.988" x2="19.565" transform="translate(-163.508 1276.402)" fill="none" stroke="#00b1e8" stroke-width="4"/>
    </g>
    <g id="Group_38" data-name="Group 38">
      <g id="Group_7" data-name="Group 7" transform="translate(2646.155 3829.406) rotate(60)">
        <circle id="Ellipse_1-2" data-name="Ellipse 1" cx="7" cy="7" r="7" transform="translate(-168 1282.677)" fill="#00b1e8"/>
        <ellipse id="Ellipse_2-2" data-name="Ellipse 2" cx="6.5" cy="7" rx="6.5" ry="7" transform="translate(-139 1271.677)" fill="#00b1e8"/>
        <line id="Line_2-2" data-name="Line 2" y1="10.78" x2="30.183" transform="translate(-161.07 1278.967)" fill="none" stroke="#00b1e8" stroke-width="4"/>
      </g>
      <g id="Group_16" data-name="Group 16" transform="translate(2851.542 3752.683) rotate(60)">
        <circle id="Ellipse_1-3" data-name="Ellipse 1" cx="14.941" cy="14.941" r="14.941" transform="translate(-168 1295.156)" fill="#00b1e8"/>
        <ellipse id="Ellipse_2-3" data-name="Ellipse 2" cx="13.874" cy="14.941" rx="13.874" ry="14.941" transform="translate(-106.1 1271.677)" fill="#00b1e8"/>
        <line id="Line_2-3" data-name="Line 2" y1="23.009" x2="64.424" transform="translate(-153.209 1287.238)" fill="none" stroke="#00b1e8" stroke-width="4"/>
      </g>
      <g id="Group_6" data-name="Group 6" transform="translate(547.196 4235.289) rotate(-93)">
        <circle id="Ellipse_1-4" data-name="Ellipse 1" cx="9" cy="9" r="9" transform="translate(-168 1286)" fill="#00b1e8"/>
        <circle id="Ellipse_2-4" data-name="Ellipse 2" cx="9" cy="9" r="9" transform="translate(-131 1272)" fill="#00b1e8"/>
        <line id="Line_2-4" data-name="Line 2" y1="13.979" x2="39.14" transform="translate(-159.014 1281.035)" fill="none" stroke="#00b1e8" stroke-width="4"/>
      </g>
      <g id="Group_9" data-name="Group 9" transform="translate(1378.952 3186.235) rotate(-19)">
        <circle id="Ellipse_1-5" data-name="Ellipse 1" cx="7" cy="7" r="7" transform="translate(-168 1282.677)" fill="#00b1e8"/>
        <ellipse id="Ellipse_2-5" data-name="Ellipse 2" cx="6.5" cy="7" rx="6.5" ry="7" transform="translate(-139 1271.677)" fill="#00b1e8"/>
        <line id="Line_2-5" data-name="Line 2" y1="10.78" x2="30.183" transform="translate(-161.07 1278.967)" fill="none" stroke="#00b1e8" stroke-width="4"/>
      </g>
      <g id="Group_14" data-name="Group 14" transform="matrix(0.946, 0.326, -0.326, 0.946, 2440.966, 3281.646)">
        <circle id="Ellipse_1-6" data-name="Ellipse 1" cx="9" cy="9" r="9" transform="translate(-168 1286)" fill="#00b1e8"/>
        <circle id="Ellipse_2-6" data-name="Ellipse 2" cx="9" cy="9" r="9" transform="translate(-131 1272)" fill="#00b1e8"/>
        <line id="Line_2-6" data-name="Line 2" y1="13.979" x2="39.14" transform="translate(-159.014 1281.035)" fill="none" stroke="#00b1e8" stroke-width="4"/>
      </g>
      <g id="Group_15" data-name="Group 15" transform="translate(2206.94 5411.75) rotate(159)">
        <circle id="Ellipse_1-7" data-name="Ellipse 1" cx="9" cy="9" r="9" transform="translate(-168 1286)" fill="#00b1e8"/>
        <circle id="Ellipse_2-7" data-name="Ellipse 2" cx="9" cy="9" r="9" transform="translate(-131 1272)" fill="#00b1e8"/>
        <line id="Line_2-7" data-name="Line 2" y1="13.979" x2="39.14" transform="translate(-159.014 1281.035)" fill="none" stroke="#00b1e8" stroke-width="4"/>
      </g>
      <path id="Path_10" data-name="Path 10" d="M1368.1,4464l103.55-105.9,196.97,78.788,20.823-114.243,140.13-33.2,36.017-116.493,43.9,276.32-12.944-299.957-42.771,181.212-209.351-58.528,223.42,184.589L1648.918,4464l-201.472-128.977Z" fill="none" stroke="#00b1e8" stroke-width="1"/>
      <path id="Path_11" data-name="Path 11" d="M1385.715,4448.307l259.74,11.869" fill="none" stroke="#00b1e8" stroke-width="1"/>
    </g>
  </g>
</svg>
